<?xml version="1.0" encoding="utf-8"?>
<!-- Svg Vector Icons : http://www.onlinewebfonts.com/icon -->
<!DOCTYPE svg PUBLIC "-//W3C//DTD SVG 1.1//EN" "http://www.w3.org/Graphics/SVG/1.1/DTD/svg11.dtd">
<svg version="1.1" xmlns="http://www.w3.org/2000/svg" xmlns:xlink="http://www.w3.org/1999/xlink" x="0px" y="0px" viewBox="0 0 1000 1000" enable-background="new 0 0 1000 1000" xml:space="preserve">
<metadata> Svg Vector Icons : http://www.onlinewebfonts.com/icon </metadata>
<g><path d="M384.8,12c-25.4,0.6-76.8,4.1-91,9.3c-14.2,5.2-38.2,22.5-15.7,57.7c22.5,35.2,93.6,137.1,93.6,137.1h261.4c0,0,90.6-129.6,96.6-143c6-13.5,15.7-44.2-19.5-50.9c-35.2-6.7-58.4-14.9-77.9-11.2c-19.5,3.7-48.6,26.6-123.6,29.8C435.4,43.8,423.8,11.1,384.8,12L384.8,12L384.8,12z"/><path d="M943.1,678.5C830.8,424.6,633.1,291,633.1,291H364.6c0,0-210.1,139.3-323.5,424.6c-26.4,66.5-7.9,155.1,29.2,201.1c66.3,82,151.1,73,159.5,73h555c18.6,0,118-10.9,162.2-91.9C972.3,851.4,987.5,778.9,943.1,678.5L943.1,678.5z M702.2,556.4L437.6,821c-9.7,9.6-22.4,14.5-35.1,14.5s-25.4-4.8-35.1-14.5l-133-133c-19.4-19.4-19.4-50.8,0-70.2c19.4-19.4,50.8-19.4,70.2,0l97.9,97.8L632,486.2c19.4-19.4,50.8-19.4,70.2,0C721.5,505.6,721.5,537,702.2,556.4L702.2,556.4z"/></g>
</svg>